<?xml version="1.0" encoding="utf-8"?>
<!-- Generator: Adobe Illustrator 21.1.0, SVG Export Plug-In . SVG Version: 6.00 Build 0)  -->
<svg version="1.1" id="_x31_" xmlns="http://www.w3.org/2000/svg" xmlns:xlink="http://www.w3.org/1999/xlink" x="0px" y="0px"
	 viewBox="0 0 128 128" style="enable-background:new 0 0 128 128;" xml:space="preserve">
<style type="text/css">
	.st0{fill:#9C8478;}
	.st1{fill:#404C4F;}
</style>
<g>
	<polygon class="st0" points="64,0 0,0 0,64 0,128 64,128 128,128 128,64 128,0 	"/>
	<g>
		<g>
			<circle class="st1" cx="22.764" cy="22.764" r="0.712"/>
			<circle class="st1" cx="9.134" cy="9.134" r="0.712"/>
		</g>
		<g>
			<circle class="st1" cx="54.764" cy="22.764" r="0.712"/>
			<circle class="st1" cx="41.134" cy="9.134" r="0.712"/>
		</g>
		<g>
			<g>
				<circle class="st1" cx="22.764" cy="54.764" r="0.712"/>
				<circle class="st1" cx="9.134" cy="41.134" r="0.712"/>
			</g>
			<g>
				<circle class="st1" cx="54.764" cy="54.764" r="0.712"/>
				<circle class="st1" cx="41.134" cy="41.134" r="0.712"/>
			</g>
		</g>
		<g>
			<g>
				<path class="st1" d="M26.01,36.636c-2.11-1.151-3.069-3.133-2.814-4.86c0.399-2.693,2.941-3.517,3.837-3.453
					c0.895,0.064,1.023-0.639,0.384-1.663c0.384-0.895-0.811-2.213-1.407-2.494c-1.087-0.512-2.877,0.256-1.982,0.831
					c0.895,0.576,1.535,1.087,0,2.302c-1.535,1.215-2.43-0.959-2.813,0.064c-0.384,1.023,0.448,2.877-0.512,3.389
					c-0.959,0.512-1.726-1.343-2.174-0.575c-0.448,0.767-0.256,3.133,0.703,4.348c0.959,1.215,4.86,3.389,6.267,3.837
					c1.407,0.448,0.767,0.575,1.343,1.087c0.576,0.512,0.128,0.959-0.064,0.959c-0.192,0,0-0.448-0.512-0.895
					c-0.512-0.448-1.599-0.064-1.343,1.087s1.471,1.471,2.43,0.895C28.312,40.92,29.023,38.279,26.01,36.636z M23.964,28.323
					c0.384-0.064,0.448,0.256,0.192,0.512c-0.256,0.256-0.767,0.639-0.767,0.639C23.452,29.026,23.58,28.387,23.964,28.323z
					 M22.237,28.387c0.32-0.192,0.959,0,0.895,0.256c-0.064,0.256-0.639,0.895-0.703,1.854
					C22.301,29.986,21.918,28.579,22.237,28.387z M21.534,30.561c0-0.448,0.959,1.407,0.639,1.535
					c-0.32,0.128-1.023-0.511-1.023-0.511C21.47,31.52,21.534,31.009,21.534,30.561z M21.278,35.293
					c-0.511-0.064-0.703-0.256-1.215-0.895c-0.512-0.639,0.192-0.576,0.576-0.32c0.532,0.355,1.215,0.448,1.215,0.448
					S21.79,35.357,21.278,35.293z M19.68,32.735c-0.576-0.831-0.192-1.471-0.192-1.471c0.511,0.831,2.174,1.471,2.622,1.407
					c0.448-0.064,0.384,1.087-0.256,1.151C21.214,33.886,20.255,33.566,19.68,32.735z M23.388,36.38c0,0-1.151-0.384-1.279-0.639
					c-0.128-0.256,0.192-0.895,0.575-0.895c0.384,0,0.256,0.384,0.256,0.384C23.58,35.932,23.388,36.38,23.388,36.38z"/>
				<path class="st1" d="M36.647,41.495c0.959,0.576,2.174,0.256,2.43-0.895c0.256-1.151-0.831-1.535-1.343-1.087
					c-0.512,0.448-0.32,0.895-0.512,0.895s-0.639-0.448-0.064-0.959c0.576-0.512-0.064-0.639,1.343-1.087
					c1.407-0.448,5.307-2.622,6.267-3.837c0.959-1.215,1.151-3.581,0.703-4.348c-0.448-0.767-1.215,1.087-2.174,0.575
					c-0.959-0.512-0.128-2.366-0.512-3.389c-0.384-1.023-1.279,1.151-2.814-0.064c-1.535-1.215-0.895-1.726,0-2.302
					c0.895-0.576-0.895-1.343-1.982-0.831c-0.596,0.28-1.79,1.599-1.407,2.494c-0.639,1.023-0.512,1.726,0.384,1.663
					c0.895-0.064,3.438,0.76,3.837,3.453c0.256,1.726-0.703,3.709-2.814,4.86C34.977,38.279,35.688,40.92,36.647,41.495z
					 M40.612,29.474c0,0-0.511-0.384-0.767-0.639c-0.256-0.256-0.192-0.576,0.192-0.512C40.42,28.387,40.548,29.026,40.612,29.474z
					 M41.571,30.497c-0.064-0.959-0.639-1.599-0.703-1.854c-0.064-0.256,0.576-0.448,0.895-0.256
					C42.082,28.579,41.699,29.986,41.571,30.497z M42.85,31.584c0,0-0.703,0.639-1.023,0.511c-0.32-0.128,0.639-1.982,0.639-1.535
					C42.466,31.009,42.53,31.52,42.85,31.584z M42.146,34.526c0,0,0.683-0.093,1.215-0.448c0.384-0.256,1.087-0.32,0.576,0.32
					c-0.511,0.639-0.703,0.831-1.215,0.895C42.21,35.357,42.146,34.526,42.146,34.526z M42.146,33.822
					c-0.639-0.064-0.703-1.215-0.256-1.151c0.448,0.064,2.11-0.576,2.622-1.407c0,0,0.384,0.639-0.192,1.471
					C43.745,33.566,42.786,33.886,42.146,33.822z M41.059,35.229c0,0-0.128-0.384,0.256-0.384c0.384,0,0.703,0.639,0.576,0.895
					c-0.128,0.256-1.279,0.639-1.279,0.639S40.42,35.932,41.059,35.229z"/>
			</g>
			<path class="st1" d="M36.723,30.21c-1.915,0.341-2.298,0-1.787-2.728s0.638-8.354-2.936-8.354s-3.447,5.626-2.936,8.354
				s0.128,3.069-1.787,2.728c-1.915-0.341-3.957,3.41-0.894,5.115c3.064,1.705,5.234,4.604,3.574,5.626
				C28.298,41.974,32,44.873,32,44.873s3.702-2.898,2.042-3.922c-1.66-1.023,0.511-3.921,3.574-5.626
				C40.681,33.62,38.638,29.869,36.723,30.21z M26.73,34.142c-0.639-0.384,0.639-0.511,0.064-1.215
				c-1.023-0.32-0.639-1.663,0.576-1.854c1.215-0.192,3.197,3.261,3.517,6.778C29.543,35.996,27.369,34.526,26.73,34.142z
				 M30.175,41.687c0.448-0.128,0.895-0.512,0.895-0.831l0.192,2.238C31.262,43.094,29.727,41.815,30.175,41.687z M32,38.938
				c0,0-0.32-6.254-2.174-7.341c0.064-0.448,0.128-0.448,0.703-0.639c0.575-0.192,0.639-1.343-0.064-1.982
				c-0.703-0.639-1.087-1.982,0-2.11c1.087-0.128-0.128-1.726-0.639-2.75c-0.511-1.023,0-3.517,2.174-3.517V38.938z M33.372,27.108
				c-0.192,1.023-0.448,3.325-0.448,3.325v-5.18c0-1.023,0.384-1.151,0.639-0.703C33.819,24.998,33.564,26.085,33.372,27.108z
				 M33.947,22.696c-0.192,0.128-0.831,0.512-0.959-0.192c-0.128-0.703-0.32-2.238,0.384-1.663
				C33.819,21.161,34.139,22.568,33.947,22.696z M37.208,31.712c-0.512,0.256-2.43,2.174-3.005,3.069
				c0.192-1.854,0.703-2.43,1.535-2.877C36.569,31.456,37.72,31.456,37.208,31.712z"/>
		</g>
	</g>
	<g>
		<g>
			<circle class="st1" cx="86.764" cy="86.764" r="0.712"/>
			<circle class="st1" cx="73.134" cy="73.134" r="0.712"/>
		</g>
		<g>
			<circle class="st1" cx="118.764" cy="86.764" r="0.712"/>
			<circle class="st1" cx="105.134" cy="73.134" r="0.712"/>
		</g>
		<g>
			<g>
				<circle class="st1" cx="86.764" cy="118.764" r="0.712"/>
				<circle class="st1" cx="73.134" cy="105.134" r="0.712"/>
			</g>
			<g>
				<circle class="st1" cx="118.764" cy="118.764" r="0.712"/>
				<circle class="st1" cx="105.134" cy="105.134" r="0.712"/>
			</g>
		</g>
		<g>
			<g>
				<path class="st1" d="M90.01,100.636c-2.11-1.151-3.069-3.133-2.814-4.86c0.399-2.693,2.941-3.517,3.837-3.453
					c0.895,0.064,1.023-0.639,0.384-1.662c0.384-0.895-0.811-2.214-1.407-2.494c-1.087-0.512-2.878,0.256-1.982,0.831
					c0.895,0.576,1.535,1.087,0,2.302c-1.535,1.215-2.43-0.959-2.813,0.064c-0.384,1.023,0.448,2.877-0.512,3.389
					c-0.959,0.511-1.727-1.343-2.174-0.576c-0.448,0.767-0.256,3.133,0.703,4.348c0.959,1.215,4.86,3.389,6.266,3.837
					s0.767,0.576,1.343,1.087c0.576,0.512,0.128,0.959-0.064,0.959c-0.192,0,0-0.448-0.512-0.895
					c-0.511-0.448-1.599-0.064-1.343,1.087c0.256,1.151,1.471,1.471,2.43,0.895C92.312,104.92,93.023,102.279,90.01,100.636z
					 M87.964,92.323c0.384-0.064,0.448,0.256,0.192,0.512c-0.256,0.256-0.767,0.639-0.767,0.639
					C87.452,93.026,87.58,92.387,87.964,92.323z M86.237,92.387c0.32-0.192,0.959,0,0.895,0.256
					c-0.064,0.256-0.639,0.895-0.703,1.854C86.301,93.986,85.918,92.579,86.237,92.387z M85.534,94.561
					c0-0.448,0.959,1.407,0.639,1.535c-0.32,0.128-1.023-0.512-1.023-0.512C85.47,95.52,85.534,95.009,85.534,94.561z
					 M85.278,99.293c-0.511-0.064-0.703-0.256-1.215-0.895c-0.512-0.639,0.192-0.576,0.576-0.32
					c0.532,0.355,1.215,0.448,1.215,0.448S85.79,99.357,85.278,99.293z M83.68,96.735c-0.576-0.831-0.192-1.471-0.192-1.471
					c0.511,0.831,2.174,1.471,2.622,1.407c0.448-0.064,0.384,1.087-0.256,1.151C85.214,97.886,84.255,97.566,83.68,96.735z
					 M87.388,100.38c0,0-1.151-0.384-1.279-0.639s0.192-0.895,0.576-0.895c0.384,0,0.256,0.384,0.256,0.384
					C87.58,99.932,87.388,100.38,87.388,100.38z"/>
				<path class="st1" d="M100.647,105.495c0.959,0.576,2.174,0.256,2.43-0.895c0.256-1.151-0.831-1.535-1.343-1.087
					c-0.512,0.448-0.32,0.895-0.512,0.895c-0.192,0-0.639-0.448-0.064-0.959c0.576-0.512-0.064-0.639,1.343-1.087
					c1.407-0.448,5.307-2.622,6.267-3.837c0.959-1.215,1.151-3.581,0.703-4.348c-0.448-0.767-1.215,1.087-2.174,0.576
					c-0.959-0.512-0.128-2.366-0.512-3.389c-0.384-1.023-1.279,1.151-2.813-0.064c-1.535-1.215-0.895-1.726,0-2.302
					c0.895-0.575-0.895-1.343-1.982-0.831c-0.596,0.28-1.79,1.599-1.407,2.494c-0.639,1.023-0.512,1.727,0.384,1.662
					c0.895-0.064,3.438,0.76,3.837,3.453c0.256,1.727-0.703,3.709-2.814,4.86C98.977,102.279,99.688,104.92,100.647,105.495z
					 M104.612,93.474c0,0-0.511-0.384-0.767-0.639c-0.256-0.256-0.192-0.576,0.192-0.512
					C104.42,92.387,104.548,93.026,104.612,93.474z M105.571,94.497c-0.064-0.959-0.64-1.599-0.703-1.854
					c-0.064-0.256,0.575-0.448,0.895-0.256C106.082,92.579,105.699,93.986,105.571,94.497z M106.85,95.584
					c0,0-0.703,0.639-1.023,0.512c-0.32-0.128,0.639-1.982,0.639-1.535C106.466,95.009,106.53,95.52,106.85,95.584z M106.146,98.526
					c0,0,0.683-0.093,1.215-0.448c0.384-0.256,1.087-0.32,0.576,0.32c-0.512,0.639-0.703,0.831-1.215,0.895
					C106.21,99.357,106.146,98.526,106.146,98.526z M106.146,97.822c-0.639-0.064-0.703-1.215-0.256-1.151
					c0.448,0.064,2.11-0.576,2.622-1.407c0,0,0.384,0.64-0.192,1.471C107.745,97.566,106.786,97.886,106.146,97.822z
					 M105.059,99.229c0,0-0.128-0.384,0.256-0.384c0.384,0,0.703,0.639,0.575,0.895s-1.279,0.639-1.279,0.639
					S104.42,99.932,105.059,99.229z"/>
			</g>
			<path class="st1" d="M100.723,94.21c-1.915,0.341-2.298,0-1.787-2.728c0.511-2.728,0.638-8.354-2.936-8.354
				s-3.447,5.627-2.936,8.354c0.511,2.728,0.128,3.069-1.787,2.728c-1.915-0.341-3.957,3.41-0.894,5.115
				c3.064,1.705,5.234,4.604,3.574,5.627c-1.66,1.023,2.043,3.922,2.043,3.922s3.702-2.899,2.043-3.922
				c-1.66-1.023,0.511-3.922,3.574-5.627C104.681,97.62,102.638,93.869,100.723,94.21z M90.73,98.142
				c-0.639-0.384,0.639-0.511,0.064-1.215c-1.023-0.32-0.639-1.663,0.576-1.854c1.215-0.192,3.197,3.261,3.517,6.778
				C93.543,99.996,91.369,98.526,90.73,98.142z M94.175,105.687c0.448-0.128,0.895-0.512,0.895-0.831l0.192,2.238
				C95.262,107.094,93.727,105.815,94.175,105.687z M96,102.938c0,0-0.32-6.254-2.174-7.341c0.064-0.448,0.128-0.448,0.703-0.639
				c0.576-0.192,0.639-1.343-0.064-1.982c-0.703-0.639-1.087-1.982,0-2.11c1.087-0.128-0.128-1.727-0.639-2.75
				c-0.511-1.023,0-3.517,2.174-3.517V102.938z M97.372,91.108c-0.192,1.023-0.448,3.325-0.448,3.325v-5.179
				c0-1.023,0.384-1.151,0.639-0.703S97.564,90.085,97.372,91.108z M97.947,86.696c-0.192,0.128-0.831,0.511-0.959-0.192
				c-0.128-0.703-0.32-2.238,0.384-1.662C97.819,85.161,98.139,86.568,97.947,86.696z M101.208,95.712
				c-0.512,0.256-2.43,2.174-3.005,3.069c0.192-1.854,0.703-2.43,1.535-2.877C100.569,95.456,101.72,95.456,101.208,95.712z"/>
		</g>
	</g>
	<g>
		<g>
			<circle class="st1" cx="86.764" cy="22.764" r="0.712"/>
			<circle class="st1" cx="73.134" cy="9.134" r="0.712"/>
		</g>
		<g>
			<circle class="st1" cx="118.764" cy="22.764" r="0.712"/>
			<circle class="st1" cx="105.134" cy="9.134" r="0.712"/>
		</g>
		<g>
			<g>
				<circle class="st1" cx="86.764" cy="54.764" r="0.712"/>
				<circle class="st1" cx="73.134" cy="41.134" r="0.712"/>
			</g>
			<g>
				<circle class="st1" cx="118.764" cy="54.764" r="0.712"/>
				<circle class="st1" cx="105.134" cy="41.134" r="0.712"/>
			</g>
		</g>
	</g>
	<g>
		<g>
			<circle class="st1" cx="22.764" cy="86.764" r="0.712"/>
			<circle class="st1" cx="9.134" cy="73.134" r="0.712"/>
		</g>
		<g>
			<circle class="st1" cx="54.764" cy="86.764" r="0.712"/>
			<circle class="st1" cx="41.134" cy="73.134" r="0.712"/>
		</g>
		<g>
			<g>
				<circle class="st1" cx="22.764" cy="118.764" r="0.712"/>
				<circle class="st1" cx="9.134" cy="105.134" r="0.712"/>
			</g>
			<g>
				<circle class="st1" cx="54.764" cy="118.764" r="0.712"/>
				<circle class="st1" cx="41.134" cy="105.134" r="0.712"/>
			</g>
		</g>
	</g>
</g>
</svg>
