<!--?xml version="1.0" encoding="utf-8"?-->
<!-- Generator: Adobe Illustrator 15.1.0, SVG Export Plug-In . SVG Version: 6.00 Build 0)  -->

<svg version="1.1" id="_x32_" xmlns="http://www.w3.org/2000/svg" xmlns:xlink="http://www.w3.org/1999/xlink" x="0px" y="0px" width="512px" height="512px" viewBox="0 0 512 512" style="width: 256px; height: 256px; opacity: 1;" xml:space="preserve">
<style type="text/css">

	.st0{fill:#4B4B4B;}

</style>
<g>
	<path class="st0" d="M507.532,223.313c-9.891-24.594-35-41.125-62.469-41.125H365.86c-2.516,0-4.75-0.031-6.75-0.094
		c0.641-0.844,1.203-1.594,1.672-2.203c2.719-3.563,4.922-6.406,6.656-9.188c0.688-0.922,1.688-2.047,2.859-3.453
		c9.516-11.234,29.328-34.625,34.531-67.109c2.891-18.016-2.359-36.438-14.359-50.516c-11.156-13.094-26.906-20.891-42.109-20.891
		c-15.359,0-28.672,7.641-36.516,20.969c-1.156,1.938-2.531,4.406-4.125,7.266c-7.797,13.859-24,42.719-39.672,54.063
		c-17.969,12.984-33.875,30.5-49.25,47.453c-21.141,23.313-43.016,47.406-60.656,47.406c-13.797,0-24.969,11.203-24.969,24.984
		v170.516c0,13.797,11.172,24.984,24.969,24.984c18.359,0,59.766,15.938,89.984,27.594c23.156,8.922,43.172,16.609,56.703,19.328
		c3.984,0.797,8.094,1.719,12.313,2.641c15.484,3.438,33.063,7.328,50.531,7.328c27.766,0,49.234-10.031,63.797-29.828
		c14.203-19.266,30.422-69.313,51.813-137.938c1.453-4.703,2.906-9.328,4.297-13.797
		C520.017,267.188,512.501,235.641,507.532,223.313z M465.563,288.453c-17.031,54.172-39.719,130.516-54.219,150.188
		c-11.031,15-26.672,19.641-43.672,19.641c-19.141,0-40-5.875-57.938-9.484c-29.891-5.984-114.328-47.406-151.594-47.406V230.875
		c45.234,0,81.125-68.25,124.531-99.594c23.391-16.922,42.984-55.797,50.688-68.906c3.547-6.031,9.016-8.672,15-8.672
		c15.984,0,35.578,18.844,31.797,42.484c-5.203,32.484-29.891,54.594-33.797,61.078c-3.891,6.516-20.797,24.703-20.797,35.094
		c0,9.109,6.484,14.813,40.297,14.813c42.031,0,70.922,0,79.203,0C478.923,207.172,508.767,246.969,465.563,288.453z" style="fill: rgb(75, 75, 75);"></path>
	<path class="st0" d="M0.001,250.734v158.219c0,19.547,15.844,35.406,35.406,35.406h42.234c13.047,0,23.609-10.578,23.609-23.609
		V215.328H35.407C15.845,215.328,0.001,231.172,0.001,250.734z M49.798,374.125c8.969,0,16.25,7.266,16.25,16.25
		c0,8.969-7.281,16.25-16.25,16.25c-8.984,0-16.266-7.281-16.266-16.25C33.532,381.391,40.813,374.125,49.798,374.125z" style="fill: rgb(75, 75, 75);"></path>
</g>
</svg>
