<!--?xml version="1.0" encoding="utf-8"?-->
<!-- Generator: Adobe Illustrator 15.1.0, SVG Export Plug-In . SVG Version: 6.00 Build 0)  -->

<svg version="1.1" id="_x32_" xmlns="http://www.w3.org/2000/svg" xmlns:xlink="http://www.w3.org/1999/xlink" x="0px" y="0px" width="512px" height="512px" viewBox="0 0 512 512" style="width: 256px; height: 256px; opacity: 1;" xml:space="preserve">
<style type="text/css">

	.st0{fill:#4B4B4B;}

</style>
<g>
	<path class="st0" d="M433.609,277.203c-43.266,0-78.375,35.094-78.375,78.391c0,43.281,35.109,78.359,78.375,78.359
		c43.297,0,78.391-35.078,78.391-78.359C512,312.297,476.906,277.203,433.609,277.203z M433.609,394.766
		c-21.641,0-39.172-17.547-39.172-39.172c0-21.656,17.531-39.203,39.172-39.203s39.188,17.547,39.188,39.203
		C472.797,377.219,455.25,394.766,433.609,394.766z" style="fill: rgb(223, 86, 86);"></path>
	<path class="st0" d="M162.906,189.813c-42.641,0-98.063,0-108.719,0s-17.063,6.375-17.063,14.906s0,18.625,0,18.625h161.813
		C198.938,223.344,205.531,189.813,162.906,189.813z" style="fill: rgb(223, 86, 86);"></path>
	<path class="st0" d="M101.078,433.953c37.172,0,68.234-25.906,76.281-60.594H24.813C32.875,408.047,63.938,433.953,101.078,433.953
		z" style="fill: rgb(223, 86, 86);"></path>
	<path class="st0" d="M422.891,257.375c22.391-2.172,59.234,5.781,74.422,20.953l8.656-14.453
		c-11.563-16.609-42.5-29.531-63.563-32.5c0,0-51-131.875-54.484-140.531c-5.125-12.734-10.656-12.797-19.172-12.797
		c-1.516,0-46.188,0-46.188,0c-4.297,0-7.813,3.516-7.813,7.828s3.516,7.813,7.813,7.813h33.891l32.766,142.609
		c-34.484,11.422-67.328,43.906-75.719,83.047c-6.156,0-22.922,0-56.813,0C199.141,319.344,197,234,197,234H45.656
		C45.656,234,0,267.016,0,361.969h334.844C334.844,296.609,380.563,261.469,422.891,257.375z" style="fill: rgb(223, 86, 86);"></path>
	<path class="st0" d="M436.109,166.563c8.094,0,17.234,0,17.234,0v-47.125c0,0-9.141,0-17.234,0c-8.438,0-19.703,9.5-19.703,19.703
		v7.703C416.406,157.063,427.672,166.563,436.109,166.563z" style="fill: rgb(223, 86, 86);"></path>
	<path class="st0" d="M471.125,119.438c0,0-0.641,0-8.734,0v47.125c8.094,0,8.734,0,8.734,0V119.438z" style="fill: rgb(223, 86, 86);"></path>
</g>
</svg>
