<svg xmlns="http://www.w3.org/2000/svg" viewBox="0 0 740.33 421.4">
  <title>shobon_base</title>
  <g id="レイヤー_2" data-name="レイヤー 2">
    <g id="レイヤー_1-2" data-name="レイヤー 1" stroke="black" fill="none" stroke-width="4px">
      <g id="outline">
        <path d="M531.2,395.47C477.16,410.25,420.85,416,365,417.8a1206.27,1206.27,0,0,1-138.41-3.51c-12.83-1.06-25.68-2.24-38.44-4-21.35-3-42.59-9.22-62.65-17A136.47,136.47,0,0,1,95.92,378a341.49,341.49,0,0,1-28.17-22.43c-13.52-11.82-26-24.64-36.46-39.25-14.43-20.09-21.72-45-25.67-69.18-5.2-31.77-2.81-64.85,9-94.93,10.19-26,26.91-48.95,46.54-68.67,20.26-20.35,43.07-38.21,68.85-51A261.78,261.78,0,0,1,204.36,8.27C229.88,4.08,255.08,2.91,280.92,3a420.44,420.44,0,0,1,73.33,6.67c15.37,2.77,30.94,5.47,45.9,10a236.8,236.8,0,0,1,42.51,18c47.54,25.38,89.39,59.74,125.63,99.52A305.77,305.77,0,0,1,641.8,279.39c3,13.87,5.22,27.9,7.36,41.92a1.5,1.5,0,0,0,2.2.9c18.1-11.24,43.93-10.32,63.57-4,10.26,3.32,26.58,11.11,21.63,24.58-5.84,15.86-25.4,14.26-38.84,12.41-1.51-.21-2.84,1.93-1.15,2.74,11.4,5.45,25.81,12.27,28.69,25.91,1.23,5.84.35,12.84-4.08,17.2-6.19,6.1-16.58,4-24.15,2.35-28.43-6-51.94-24.84-72.37-44.57a1.53,1.53,0,0,0-1.82-.24c-18.5,9.73-36.67,19.94-56.76,26.12L531.2,395.47c-1.84.57-1.05,3.46.8,2.89l35.47-10.91c20.12-6.19,38.36-16.49,56.89-26.24l-1.82-.23c12.34,11.93,25.49,23.23,40.34,32,13.82,8.13,30.81,15.34,47.15,15.11,13.48-.19,20.68-11.64,18.25-24.35-2.83-14.84-17.85-22.41-30.2-28.32l-1.15,2.74c14.11,1.95,31.73,3.49,40.51-10.41,7.63-12.08-1.07-22.87-12-28.41-11.52-5.85-24.89-8.18-37.72-8.39s-26.71,1.78-37.88,8.71l2.21.9c-4.33-28.38-9.31-56.68-19.35-83.68-9.07-24.39-21-48.13-36.05-69.37-15.79-22.19-34.54-42-54.3-60.71-18.87-17.84-38.61-34.94-60.46-49C455.7,40.84,428.6,24.79,398.47,16.06,383.31,11.68,367.56,9,352,6.25c-12.14-2.12-24.34-3.88-36.62-4.9C302.94.3,290.41,0,277.88,0c-13.47,0-27.06-.12-40.5,1-23.5,2-47.51,5.39-69.95,12.86C113.15,32,64,66.9,31.43,114.36a175.91,175.91,0,0,0-30.2,79.32c-3.65,31.7,1,64.57,12,94.44,13.85,37.41,45.1,65.8,76.41,89,20.06,14.88,43.68,23.13,67.62,29.6a286.37,286.37,0,0,0,43,8,1139,1139,0,0,0,122.49,6.63c56.42.22,113.26-3.09,168.76-13.69,13.61-2.6,27.11-5.68,40.47-9.34A1.5,1.5,0,0,0,531.2,395.47Z"/>
      </g>
      <g id="mouth">
        <path d="M77.39,197.72c-3.57,6.56-3.1,16.32-1.74,23.46,1.4,7.39,6,13.61,13.66,15.1,15.44,3,27.91-13.4,28.79-27.36l-2.79.75c8.34,13.94,16.46,33.48,35.59,34.34,7.47.34,14.84-5.26,17.69-11.92,3.79-8.88,3.89-18.68,2.27-28.06-.33-1.9-3.22-1.09-2.89.8,2.47,14.33-1.32,42.28-22.49,35-14.76-5.06-20.23-19.42-27.58-31.7a1.51,1.51,0,0,0-2.8.76c-.75,12-11.31,26.42-24.53,24.51-7.5-1.09-11.21-7.32-12.21-14.35C77.5,213,77,204.71,80,199.24c.93-1.7-1.66-3.22-2.59-1.52Z"/>
      </g>
      <g id="eye-right">
        <path d="M209.2,151.47c-9.63,3.06-16.94,15.22-16.09,25.22,1,11.31,10.58,20.13,20.86,23.58,10,3.34,21.82-1.43,27-10.5,5.58-9.79,3.56-22.69-4-30.84-4-4.32-9.27-6.56-14.95-7.72-5.06-1-8-1.07-12.8.26a1.5,1.5,0,0,0,.8,2.89,19.33,19.33,0,0,1,9.88-.51c5.17,1,10.12,2.53,14,6.23,9.64,9.21,10,26.77-1.53,34.61-10.7,7.24-25.43,2.25-32.3-8-3.81-5.69-4.84-11.45-2.68-18,2-6.12,6.25-12.34,12.62-14.37C211.83,153.78,211.05,150.88,209.2,151.47Z"/>
      </g>
      <g id="eye-left">
        <path d="M32.31,136.16c-5.49,8.23-9.31,21.83-2,30.05,6.8,7.66,23.77,10.18,32.35,4.16,8.28-5.81,13.34-17.86,12.45-27.87-.92-10.38-11.83-15.58-20.85-16.1-5.4-.31-10-.38-14.59,2.69a25.87,25.87,0,0,0-7.34,7.07c-1.16,1.54,1.44,3,2.59,1.51,2.39-3.19,2.73-3.64,5.87-5.73,4.2-2.8,8.18-2.8,13.12-2.55,6.64.33,12.06,2.26,15.9,8,3.12,4.68,2.42,8.78,1.14,14.06a28.66,28.66,0,0,1-7.47,14.11c-4.93,5.19-13.49,5.83-20.18,4.11-7.36-1.89-14.41-6.22-14-14.75a35.6,35.6,0,0,1,5.65-17.25C36,136.06,33.37,134.56,32.31,136.16Z"/>
      </g>
      <g id="_eyebrow" data-name="eyebrow">
        <path d="M277.52,145.85a136.2,136.2,0,0,1,23.68,11.57c1.65,1,3.16-1.58,1.51-2.59A138.91,138.91,0,0,0,278.31,143c-1.81-.68-2.59,2.22-.79,2.89Z"/>
      </g>
      <g id="hand">
        <path>
          <animate dur=".3s" repeatCount="indefinite" attributeName="d" attributeType="XML"  values="M367.16,250.31c4.42,12.59,13.11,23.31,23.09,32,8.38,7.29,17.33,12,28.4,13.55S440.52,295,447,285.11c8.23-12.62,5.68-28.39,3.11-42.3-.35-1.9-3.25-1.1-2.9.79,2.44,13.14,5,28.06-2.8,40-6.62,10.18-18.64,11-29.52,8.51-9.85-2.22-17.58-7.3-24.94-14.15-8.51-7.92-16-17.37-19.87-28.44-.64-1.81-3.54-1-2.89.79Z;
          M367.31,250.67c2.47,5.67,9.46,9.23,14.62,12a125,125,0,0,0,21.34,8.84c11.85,3.8,24.87,7.66,37.37,8.21,9.52.43,20.76-1.29,23.3-12.25,1.26-5.44-.52-11.6-3-16.45s-6.76-7.11-11.51-9.14c-1.76-.75-3.29,1.83-1.52,2.59,4.62,2,8.59,4.09,10.78,8.81,2.4,5.18,4.1,11.78.94,17-5.2,8.58-18.34,7.24-26.73,5.55a257.52,257.52,0,0,1-30.33-7.69,119.64,119.64,0,0,1-17.62-7.27c-5.12-2.66-12.58-6.13-15-11.72-.77-1.77-3.36-.24-2.59,1.51Z;
          M370.05,250.31a125.59,125.59,0,0,1,22.09-41.06c6-7.26,15.4-16.09,25.25-16.48,12.73-.51,22.1,11.6,25.77,22.54,3,9,3.4,18.53,4,27.89.12,1.92,3.12,1.94,3,0-.69-11.35-1.29-22.83-5.87-33.41-4.35-10-14-19.73-25.49-20-10.84-.28-20.65,8.14-27.47,15.88-5.47,6.2-9.67,13.4-13.7,20.59a122.19,122.19,0,0,0-10.44,23.29c-.58,1.84,2.31,2.63,2.89.79Z;
          M1920.5,28.1c-55.6,14.7-90.5,16.5-144,0c-49.9-15.4-70.8-6.4-121.1,4.7c-52.3,11.6-73.9-24.9-122-31.7;">
          </animate>
        </path>
      </g>
    </g>
  </g>
</svg>
